<?xml version="1.0" encoding="utf-8" standalone="no"?><!-- Generator: Adobe Illustrator 21.1.0, SVG Export Plug-In . SVG Version: 6.00 Build 0)  --><svg xmlns="http://www.w3.org/2000/svg" xmlns:xlink="http://www.w3.org/1999/xlink" height="125px" id="Laag_1" style="enable-background:new 0 0 400 125;" version="1.1" viewBox="0 0 400 125" width="400px" x="0px" xml:space="preserve" y="0px">
<style type="text/css">
	.st0{fill:#144196;}
	.st1{fill:#C3BEB9;}
</style>
<g>
	<path class="st0" d="M4.32,40.64c1.86-1.45,4.23-2.16,6.87-2.16c1.37,0,3.31,0.28,4.5,0.61c0.31,0.08,0.48,0.13,0.71,0.1   c0.02,0.59,0.15,2.19,0.35,3.74c-0.13,0.18-0.51,0.21-0.69,0.05c-0.38-1.73-1.53-3.71-5.22-3.71c-3.9,0-7.2,2.47-7.2,7.74   c0,5.35,3.38,8.3,7.56,8.3c3.28,0,4.73-2.14,5.32-3.64c0.18-0.13,0.56-0.08,0.66,0.1c-0.18,1.32-0.84,3-1.22,3.49   c-0.31,0.05-0.61,0.15-0.89,0.25c-0.56,0.2-2.39,0.58-4.02,0.58c-2.29,0-4.48-0.46-6.34-1.7c-2.03-1.4-3.61-3.72-3.61-7   C1.11,44.55,2.39,42.14,4.32,40.64z"/>
	<path class="st0" d="M48.1,35.74c0-2.87-0.15-3.56-1.9-3.75l-1.24-0.12c-0.31-0.23-0.27-0.82,0.04-0.97   c2.09-0.19,4.72-0.31,8.32-0.31c2.44,0,4.76,0.19,6.5,1.08c1.66,0.81,2.94,2.36,2.94,4.84c0,2.79-1.63,4.22-3.95,5.31   c0,0.39,0.31,0.5,0.73,0.58c2.09,0.39,5.19,2.33,5.19,6.47c0,4.49-3.33,7.51-10.3,7.51c-1.12,0-3.02-0.12-4.65-0.12   c-1.7,0-3.02,0.08-4.45,0.12c-0.23-0.12-0.31-0.73-0.08-0.97l0.7-0.12c2.05-0.31,2.13-0.78,2.13-4.84V35.74z M51.27,40.89   c0,1.08,0.04,1.16,2.01,1.08c3.95-0.15,6.07-1.32,6.07-4.96c0-3.8-2.82-5.23-5.76-5.23c-0.86,0-1.43,0.08-1.78,0.23   c-0.39,0.12-0.54,0.31-0.54,1.01V40.89z M51.27,49.88c0,1.39,0.08,3.37,0.81,4.22c0.74,0.89,1.9,1.08,3.06,1.08   c3.44,0,6.08-1.55,6.08-5.42c0-3.06-1.55-6.62-7.7-6.62c-2.09,0-2.25,0.23-2.25,1.01V49.88z"/>
	<path class="st0" d="M126.25,50.78c0,2.06,0.31,3.29,1.24,3.65c0.15,0.15,0.15,0.46-0.05,0.62c-0.62,0-1.54,0.2-2.52,0.46   c-2.73,0.72-6.43,1.34-9.21,1.34c-6.12,0-11.73-1.7-15.69-5.71c-3.09-3.09-4.73-7.15-4.73-11.68c0-4.37,1.44-8.8,4.63-12.19   c3.45-3.6,8.54-6.02,16.31-6.02c2.93,0,5.66,0.57,6.53,0.77c0.98,0.2,2.57,0.56,3.19,0.46c0,1.7,0.31,4.37,0.77,7.46   c-0.15,0.41-1.08,0.46-1.39,0.15c-1.44-5.56-5.3-7.31-10.55-7.31c-9.98,0-14.35,7.1-14.35,14.82c0,9.88,5.09,17.65,15.43,17.65   c3.19,0,5.1-0.67,5.66-1.54c0.26-0.36,0.51-1.28,0.51-2.93v-2.06c0-4.32-0.15-4.63-3.34-4.99l-2.26-0.26   c-0.41-0.2-0.36-1.13,0-1.29c1.5,0.11,4.32,0.16,7.36,0.16c2.01,0,3.76-0.05,5.45-0.16c0.36,0.21,0.41,0.98,0.05,1.29l-0.82,0.1   c-2.16,0.26-2.21,1.7-2.21,4.32V50.78z"/>
</g>
<g>
	<path class="st1" d="M96.46,79.21c1.65-4.37,2.16-6.07,2.16-6.89c0-0.72-0.46-1.03-1.44-1.18l-2.42-0.36   c-0.31-0.31-0.21-1.08,0.26-1.29c2.42,0.1,4.06,0.15,5.66,0.15c1.13,0,2.37-0.05,3.45-0.15c-0.72,2.47-0.31,5.61,0.26,10.03   l0.82,6.64c0.56,4.43,0.87,7.15,1.13,9.41h0.1c2.01-2.42,3.96-5.04,5.92-7.56l8.18-10.55c3.91-5.04,4.73-7.05,4.99-7.97   c0.88,0.1,1.8,0.15,3.19,0.15c2.01,0,3.6-0.05,5.2-0.15c0.41,0.26,0.26,0.98,0,1.29l-1.18,0.2c-1.8,0.31-2.57,0.62-3.09,1.18   c-0.72,0.82-1.24,2.42-2.37,6.38l-4.48,15.95c-1.08,3.81-1.44,5.61-1.49,6.43c-0.05,0.82,0.62,1.29,2.06,1.39l1.75,0.15   c0.36,0.36,0.2,1.08-0.21,1.29c-1.9-0.1-4.22-0.15-6.59-0.15c-2.11,0-4.32,0.05-6.23,0.15c-0.36-0.31-0.36-1.08,0-1.29l1.33-0.15   c0.93-0.1,2.27-0.41,2.83-0.98c0.62-0.62,1.65-3.3,2.62-6.54L123,81.33c0.82-2.63,1.54-4.94,1.95-6.48l-0.16-0.05   c-0.72,0.93-2.06,2.68-4.78,6.28L112.2,91.2c-2.93,3.81-5.97,7.72-8.23,11.58c-0.31,0.2-0.77,0.05-0.98-0.21   c0.05-1.85-0.21-4.58-0.82-10.5c-0.67-6.64-1.49-14.72-1.75-17.29h-0.1c-0.82,1.85-1.59,4.02-2.37,6.13l-3.86,10.39   c-2.42,6.64-3.09,8.65-3.09,9.62c0,0.57,0.26,0.98,1.55,1.18l2.21,0.36c0.21,0.31,0.1,1.03-0.15,1.29c-1.44-0.1-3.5-0.15-5.92-0.15   c-2.11,0-3.85,0.05-5.5,0.15c-0.31-0.31-0.31-1.13,0.05-1.29l1.39-0.15c1.13-0.1,2.26-0.46,2.93-1.39   c0.82-1.03,2.98-6.22,6.22-14.77L96.46,79.21z"/>
	<path class="st1" d="M159.99,75.84c1.16-3.64,1.2-4.18-0.85-4.57l-0.77-0.16c-0.23-0.31-0.19-0.81,0.23-0.96   c1.36,0.07,2.67,0.12,4.3,0.12h7.32c2.48,0,4.3,0,5.46-0.12c-0.27,0.66-1.2,3.75-1.59,5.15c-0.16,0.31-0.85,0.27-0.97-0.04   c0.23-2.02,0.35-2.98-1.36-3.45c-0.89-0.23-2.09-0.35-4.1-0.35h-2.28c-1.01,0-1.16,0.15-1.51,1.32l-2.48,7.94   c-0.35,1.08-0.39,1.12,0.7,1.12h1.94c3.68,0,4.46-0.23,5.34-1.9l0.62-1.16c0.16-0.27,0.89-0.23,0.97,0.08   c-0.27,0.66-0.85,2.32-1.32,3.76c-0.43,1.47-0.81,2.91-1.01,3.76c-0.23,0.31-0.81,0.27-0.97-0.04v-1.09c0-2.01-1.01-2.06-3.99-2.06   h-1.93c-1.09,0-1.16,0.04-1.51,1.13l-1.59,5.23c-0.66,2.17-1.05,3.48-0.66,4.26c0.27,0.54,1.01,0.82,4.3,0.82   c4.26,0,5.81-0.23,8.25-4.03c0.31-0.19,0.74-0.12,0.89,0.23c-0.35,1.12-1.67,4.07-2.67,5.11c-2.56-0.08-5.93-0.12-8.87-0.12h-4.57   c-1.59,0-2.91,0.04-4.61,0.12c-0.31-0.2-0.31-0.74-0.04-0.97l1.36-0.12c1.86-0.15,2.25-0.66,3.48-4.61L159.99,75.84z"/>
	<path class="st1" d="M203.12,73.98c0.61-1.96,0.38-2.19-0.76-2.26l-0.84-0.03c-0.18-0.13-0.13-0.48,0-0.61   c0.92-0.13,2.39-0.3,4.27-0.3c1.35,0,2.9,0.1,4.12,0.61c1.25,0.53,2.16,1.5,2.16,3.21c0,2.57-2.57,3.77-3.97,3.87   c-0.41,0.02-0.23,0.2,0,0.28c1.45,0.48,2.65,1.91,2.65,3.74c0,0.94-0.28,2.24-1.37,3.31c-1.07,1.07-2.95,1.93-6.11,1.93   c-1.37,0-2.32-0.08-3.39-0.08c-1.02,0-1.88,0.03-2.62,0.08c-0.2-0.13-0.2-0.48-0.03-0.64l0.51-0.08c1.22-0.18,1.48-0.43,2.29-3.03   L203.12,73.98z M201.72,84.72c-0.54,1.68,0.2,2.21,2.03,2.21c2.14,0,4.81-1.32,4.81-4.76c0-2.16-1.85-3.21-3.77-3.21   c-1.22,0-1.32,0.03-1.58,0.87L201.72,84.72z M203.96,77.47c-0.18,0.61-0.15,0.74,0.94,0.74c1.83,0,5.09-0.89,5.09-4.1   c0-1.48-1.12-2.55-3.21-2.55c-0.97,0-1.02-0.02-1.25,0.82L203.96,77.47z"/>
</g>
<g>
	<rect height="0.53" width="212.41" y="61.82"/>
	<rect height="82.51" width="0.53" x="244.39" y="21.24"/>
</g>
<g>
	<path class="st0" d="M263.99,46.71c0,0.12,0,0.22-0.01,0.31c-0.01,0.08-0.02,0.16-0.03,0.22c-0.01,0.06-0.03,0.11-0.06,0.16   c-0.02,0.04-0.06,0.09-0.11,0.15c-0.05,0.06-0.16,0.13-0.31,0.21c-0.15,0.09-0.34,0.17-0.56,0.25c-0.22,0.08-0.47,0.15-0.75,0.2   c-0.28,0.05-0.59,0.08-0.91,0.08c-0.64,0-1.22-0.1-1.74-0.3c-0.52-0.2-0.96-0.49-1.32-0.89c-0.36-0.39-0.64-0.89-0.83-1.47   c-0.19-0.59-0.29-1.27-0.29-2.06c0-0.8,0.11-1.5,0.32-2.12c0.21-0.62,0.51-1.14,0.89-1.56c0.38-0.42,0.84-0.74,1.37-0.96   c0.53-0.22,1.12-0.33,1.76-0.33c0.26,0,0.51,0.02,0.75,0.07c0.24,0.04,0.46,0.1,0.67,0.17c0.2,0.07,0.39,0.15,0.56,0.24   c0.16,0.09,0.28,0.17,0.34,0.24c0.06,0.06,0.11,0.12,0.13,0.16c0.02,0.04,0.04,0.1,0.06,0.17c0.02,0.07,0.03,0.15,0.03,0.24   c0.01,0.09,0.01,0.2,0.01,0.34c0,0.14-0.01,0.27-0.02,0.37c-0.01,0.1-0.03,0.18-0.05,0.25c-0.02,0.06-0.05,0.11-0.09,0.14   c-0.03,0.03-0.07,0.04-0.11,0.04c-0.07,0-0.17-0.04-0.28-0.13c-0.11-0.08-0.26-0.18-0.43-0.28c-0.18-0.1-0.39-0.2-0.63-0.28   c-0.24-0.08-0.54-0.13-0.87-0.13c-0.37,0-0.7,0.08-1,0.23c-0.29,0.15-0.54,0.37-0.74,0.65c-0.2,0.28-0.36,0.62-0.47,1.02   c-0.11,0.4-0.16,0.85-0.16,1.35c0,0.55,0.06,1.03,0.17,1.43c0.11,0.4,0.27,0.73,0.49,1c0.21,0.26,0.46,0.45,0.76,0.58   c0.3,0.13,0.63,0.19,1,0.19c0.34,0,0.63-0.04,0.88-0.12c0.25-0.08,0.46-0.17,0.63-0.26c0.18-0.1,0.32-0.18,0.43-0.26   c0.11-0.08,0.2-0.12,0.26-0.12c0.05,0,0.09,0.01,0.12,0.03c0.03,0.02,0.05,0.06,0.07,0.12c0.02,0.06,0.03,0.14,0.04,0.24   C263.99,46.39,263.99,46.53,263.99,46.71z"/>
	<path class="st0" d="M275.16,43.33c0,0.78-0.1,1.47-0.29,2.08c-0.19,0.61-0.48,1.13-0.86,1.56c-0.38,0.43-0.86,0.75-1.42,0.98   c-0.56,0.23-1.21,0.34-1.95,0.34c-0.73,0-1.37-0.1-1.91-0.29c-0.54-0.19-0.99-0.48-1.36-0.87c-0.36-0.39-0.63-0.89-0.82-1.49   c-0.18-0.6-0.27-1.32-0.27-2.14c0-0.76,0.1-1.44,0.29-2.05c0.19-0.61,0.48-1.12,0.86-1.55c0.38-0.43,0.85-0.75,1.41-0.98   c0.56-0.23,1.22-0.34,1.96-0.34c0.71,0,1.33,0.09,1.88,0.28c0.54,0.19,1,0.48,1.36,0.87c0.36,0.39,0.64,0.89,0.82,1.48   C275.07,41.82,275.16,42.52,275.16,43.33z M273.16,43.43c0-0.49-0.04-0.94-0.12-1.34c-0.08-0.4-0.21-0.75-0.4-1.04   c-0.19-0.29-0.43-0.51-0.74-0.67c-0.31-0.16-0.7-0.23-1.16-0.23c-0.47,0-0.86,0.09-1.17,0.26c-0.32,0.18-0.57,0.41-0.76,0.71   c-0.19,0.29-0.33,0.64-0.41,1.03c-0.08,0.39-0.12,0.81-0.12,1.25c0,0.51,0.04,0.97,0.12,1.38c0.08,0.41,0.21,0.76,0.39,1.05   c0.18,0.29,0.43,0.51,0.74,0.66c0.31,0.15,0.7,0.23,1.17,0.23c0.47,0,0.86-0.09,1.17-0.26c0.31-0.17,0.56-0.41,0.76-0.71   c0.19-0.3,0.33-0.65,0.41-1.04C273.12,44.31,273.16,43.88,273.16,43.43z"/>
	<path class="st0" d="M283.39,47.33c0,0.14-0.01,0.27-0.02,0.36c-0.01,0.1-0.03,0.18-0.06,0.25c-0.02,0.07-0.05,0.11-0.09,0.14   c-0.04,0.03-0.08,0.04-0.13,0.04h-4.29c-0.16,0-0.29-0.05-0.4-0.14c-0.11-0.09-0.16-0.25-0.16-0.46v-8.51   c0-0.05,0.01-0.09,0.04-0.13c0.03-0.04,0.08-0.07,0.16-0.1c0.07-0.02,0.17-0.04,0.29-0.06c0.12-0.02,0.28-0.02,0.46-0.02   c0.19,0,0.34,0.01,0.46,0.02c0.12,0.02,0.22,0.03,0.29,0.06c0.07,0.02,0.12,0.05,0.16,0.1c0.03,0.04,0.05,0.08,0.05,0.13v7.54h2.95   c0.05,0,0.09,0.01,0.13,0.04c0.04,0.03,0.07,0.07,0.09,0.13c0.02,0.06,0.04,0.14,0.06,0.24C283.38,47.06,283.39,47.18,283.39,47.33   z"/>
	<path class="st0" d="M291.14,47.33c0,0.14,0,0.27-0.02,0.36c-0.01,0.1-0.03,0.18-0.05,0.25c-0.02,0.07-0.06,0.11-0.09,0.14   c-0.03,0.03-0.08,0.04-0.13,0.04h-4.29c-0.16,0-0.29-0.05-0.4-0.14c-0.11-0.09-0.16-0.25-0.16-0.46v-8.51   c0-0.05,0.02-0.09,0.05-0.13c0.03-0.04,0.08-0.07,0.16-0.1c0.07-0.02,0.17-0.04,0.29-0.06c0.12-0.02,0.28-0.02,0.46-0.02   c0.19,0,0.34,0.01,0.46,0.02c0.12,0.02,0.22,0.03,0.29,0.06c0.07,0.02,0.12,0.05,0.16,0.1c0.03,0.04,0.05,0.08,0.05,0.13v7.54h2.95   c0.05,0,0.09,0.01,0.13,0.04c0.04,0.03,0.07,0.07,0.09,0.13c0.02,0.06,0.04,0.14,0.05,0.24C291.14,47.06,291.14,47.18,291.14,47.33   z"/>
	<path class="st0" d="M299.3,47.38c0,0.14-0.01,0.26-0.02,0.35c-0.01,0.09-0.03,0.17-0.06,0.23c-0.02,0.06-0.05,0.1-0.09,0.13   c-0.04,0.03-0.08,0.04-0.12,0.04h-4.7c-0.16,0-0.29-0.05-0.4-0.14c-0.11-0.09-0.16-0.25-0.16-0.46v-8.17   c0-0.21,0.05-0.37,0.16-0.46c0.11-0.1,0.24-0.14,0.4-0.14h4.68c0.04,0,0.08,0.01,0.11,0.04c0.04,0.02,0.06,0.07,0.09,0.13   c0.02,0.06,0.04,0.14,0.05,0.23c0.01,0.09,0.02,0.21,0.02,0.36c0,0.13-0.01,0.25-0.02,0.34c-0.01,0.09-0.03,0.17-0.05,0.23   c-0.02,0.06-0.05,0.1-0.09,0.13c-0.03,0.03-0.07,0.04-0.11,0.04h-3.34v2.29h2.83c0.04,0,0.08,0.01,0.12,0.04   c0.04,0.03,0.07,0.07,0.09,0.12c0.02,0.06,0.04,0.13,0.05,0.22c0.01,0.09,0.02,0.21,0.02,0.34c0,0.14-0.01,0.26-0.02,0.35   c-0.01,0.09-0.03,0.16-0.05,0.22c-0.03,0.06-0.05,0.09-0.09,0.12c-0.04,0.02-0.08,0.04-0.12,0.04h-2.83v2.64h3.37   c0.04,0,0.08,0.01,0.12,0.04c0.03,0.03,0.07,0.07,0.09,0.13c0.02,0.06,0.04,0.13,0.06,0.23C299.29,47.12,299.3,47.24,299.3,47.38z"/>
	<path class="st0" d="M309.76,40.21c0,0.14-0.01,0.26-0.02,0.36c-0.01,0.1-0.03,0.18-0.05,0.24c-0.02,0.06-0.05,0.1-0.08,0.13   c-0.03,0.03-0.07,0.04-0.11,0.04c-0.06,0-0.16-0.04-0.3-0.13c-0.14-0.09-0.32-0.18-0.56-0.28c-0.23-0.1-0.51-0.2-0.83-0.28   c-0.32-0.09-0.69-0.13-1.12-0.13c-0.45,0-0.86,0.08-1.23,0.23c-0.37,0.16-0.68,0.38-0.94,0.67c-0.26,0.29-0.46,0.63-0.6,1.04   c-0.14,0.4-0.21,0.85-0.21,1.33c0,0.54,0.07,1.01,0.22,1.42c0.14,0.41,0.34,0.75,0.59,1.03c0.26,0.27,0.57,0.48,0.92,0.62   c0.36,0.14,0.76,0.21,1.19,0.21c0.21,0,0.42-0.02,0.63-0.07c0.21-0.05,0.4-0.12,0.58-0.22v-2.17h-1.77c-0.09,0-0.15-0.05-0.2-0.16   c-0.05-0.11-0.07-0.29-0.07-0.55c0-0.14,0.01-0.25,0.02-0.34c0.01-0.09,0.03-0.17,0.05-0.22c0.02-0.06,0.05-0.1,0.09-0.12   c0.03-0.03,0.07-0.04,0.12-0.04h3.16c0.08,0,0.15,0.01,0.21,0.04c0.06,0.03,0.11,0.07,0.16,0.12c0.04,0.05,0.08,0.12,0.1,0.19   c0.02,0.08,0.04,0.16,0.04,0.26v3.73c0,0.14-0.02,0.27-0.08,0.38c-0.05,0.11-0.16,0.19-0.31,0.26c-0.16,0.06-0.35,0.13-0.58,0.2   c-0.23,0.07-0.47,0.13-0.72,0.17c-0.25,0.05-0.5,0.09-0.75,0.11c-0.25,0.02-0.51,0.04-0.76,0.04c-0.75,0-1.42-0.11-2.01-0.32   c-0.59-0.21-1.09-0.53-1.5-0.93c-0.41-0.41-0.73-0.9-0.94-1.49c-0.22-0.59-0.32-1.25-0.32-1.99c0-0.77,0.12-1.46,0.35-2.07   c0.23-0.61,0.56-1.13,0.98-1.56c0.43-0.43,0.94-0.75,1.54-0.98c0.6-0.23,1.27-0.34,2.01-0.34c0.41,0,0.77,0.03,1.11,0.08   c0.33,0.06,0.62,0.12,0.87,0.2c0.25,0.08,0.45,0.17,0.62,0.26c0.16,0.09,0.28,0.17,0.35,0.24c0.06,0.07,0.11,0.16,0.14,0.29   C309.74,39.79,309.76,39.97,309.76,40.21z"/>
	<path class="st0" d="M318.73,47.38c0,0.14-0.01,0.26-0.02,0.35c-0.01,0.09-0.03,0.17-0.05,0.23c-0.02,0.06-0.05,0.1-0.09,0.13   c-0.04,0.03-0.08,0.04-0.12,0.04h-4.7c-0.16,0-0.29-0.05-0.4-0.14c-0.11-0.09-0.16-0.25-0.16-0.46v-8.17   c0-0.21,0.06-0.37,0.16-0.46c0.11-0.1,0.24-0.14,0.4-0.14h4.68c0.04,0,0.08,0.01,0.12,0.04c0.03,0.02,0.06,0.07,0.09,0.13   c0.02,0.06,0.04,0.14,0.05,0.23c0.01,0.09,0.02,0.21,0.02,0.36c0,0.13-0.01,0.25-0.02,0.34c-0.01,0.09-0.03,0.17-0.05,0.23   c-0.02,0.06-0.05,0.1-0.09,0.13c-0.03,0.03-0.07,0.04-0.12,0.04h-3.34v2.29h2.83c0.04,0,0.09,0.01,0.12,0.04   c0.04,0.03,0.07,0.07,0.09,0.12c0.02,0.06,0.04,0.13,0.05,0.22c0.01,0.09,0.02,0.21,0.02,0.34c0,0.14,0,0.26-0.02,0.35   c-0.01,0.09-0.03,0.16-0.05,0.22c-0.03,0.06-0.05,0.09-0.09,0.12c-0.03,0.02-0.08,0.04-0.12,0.04h-2.83v2.64h3.37   c0.05,0,0.09,0.01,0.12,0.04c0.04,0.03,0.07,0.07,0.09,0.13c0.03,0.06,0.04,0.13,0.05,0.23C318.72,47.12,318.73,47.24,318.73,47.38   z"/>
	<path class="st0" d="M332.95,39.54c0,0.14-0.01,0.26-0.02,0.36c-0.01,0.1-0.03,0.18-0.05,0.24c-0.03,0.06-0.05,0.11-0.09,0.13   c-0.04,0.03-0.08,0.04-0.12,0.04h-2.35v7.55c0,0.05-0.02,0.09-0.05,0.13c-0.03,0.04-0.08,0.07-0.16,0.09   c-0.07,0.02-0.17,0.04-0.29,0.06c-0.12,0.01-0.28,0.02-0.46,0.02c-0.18,0-0.34-0.01-0.46-0.02c-0.12-0.01-0.22-0.03-0.29-0.06   c-0.07-0.03-0.12-0.05-0.15-0.09c-0.03-0.04-0.05-0.08-0.05-0.13v-7.55h-2.35c-0.05,0-0.09-0.02-0.12-0.04   c-0.03-0.03-0.06-0.07-0.09-0.13c-0.02-0.06-0.04-0.14-0.05-0.24c-0.01-0.1-0.02-0.22-0.02-0.36c0-0.14,0-0.27,0.02-0.37   c0.01-0.1,0.03-0.18,0.05-0.24c0.02-0.06,0.05-0.1,0.09-0.13c0.03-0.03,0.07-0.04,0.12-0.04h6.6c0.04,0,0.08,0.01,0.12,0.04   c0.03,0.03,0.06,0.07,0.09,0.13c0.02,0.06,0.04,0.14,0.05,0.24C332.95,39.27,332.95,39.39,332.95,39.54z"/>
	<path class="st0" d="M341.1,47.38c0,0.14-0.01,0.26-0.02,0.35c-0.01,0.09-0.03,0.17-0.06,0.23c-0.02,0.06-0.05,0.1-0.09,0.13   c-0.04,0.03-0.08,0.04-0.12,0.04h-4.71c-0.16,0-0.29-0.05-0.4-0.14c-0.11-0.09-0.16-0.25-0.16-0.46v-8.17   c0-0.21,0.05-0.37,0.16-0.46c0.11-0.1,0.24-0.14,0.4-0.14h4.68c0.04,0,0.08,0.01,0.12,0.04c0.03,0.02,0.06,0.07,0.09,0.13   c0.02,0.06,0.04,0.14,0.06,0.23c0.01,0.09,0.02,0.21,0.02,0.36c0,0.13-0.01,0.25-0.02,0.34c-0.01,0.09-0.03,0.17-0.06,0.23   c-0.02,0.06-0.05,0.1-0.09,0.13c-0.03,0.03-0.07,0.04-0.12,0.04h-3.34v2.29h2.83c0.04,0,0.08,0.01,0.12,0.04   c0.03,0.03,0.07,0.07,0.09,0.12c0.02,0.06,0.04,0.13,0.05,0.22c0.01,0.09,0.02,0.21,0.02,0.34c0,0.14-0.01,0.26-0.02,0.35   c-0.01,0.09-0.03,0.16-0.05,0.22c-0.02,0.06-0.06,0.09-0.09,0.12c-0.04,0.02-0.08,0.04-0.12,0.04h-2.83v2.64h3.37   c0.04,0,0.08,0.01,0.12,0.04c0.04,0.03,0.07,0.07,0.09,0.13c0.03,0.06,0.04,0.13,0.06,0.23C341.09,47.12,341.1,47.24,341.1,47.38z"/>
	<path class="st0" d="M351.21,47.88c0,0.05-0.01,0.1-0.03,0.13c-0.02,0.04-0.07,0.07-0.14,0.09c-0.07,0.02-0.18,0.04-0.32,0.05   c-0.14,0.01-0.33,0.01-0.57,0.01c-0.2,0-0.36,0-0.49-0.01c-0.12-0.01-0.22-0.03-0.29-0.05c-0.07-0.03-0.12-0.06-0.15-0.1   c-0.03-0.04-0.05-0.09-0.07-0.15l-0.84-2.09c-0.1-0.24-0.2-0.44-0.3-0.63c-0.1-0.18-0.2-0.34-0.32-0.46   c-0.12-0.12-0.25-0.22-0.41-0.28c-0.15-0.06-0.33-0.09-0.54-0.09h-0.59v3.57c0,0.05-0.02,0.09-0.05,0.13   c-0.03,0.04-0.08,0.07-0.16,0.09c-0.07,0.02-0.17,0.04-0.29,0.06c-0.12,0.01-0.27,0.02-0.46,0.02c-0.18,0-0.34-0.01-0.46-0.02   c-0.12-0.01-0.22-0.03-0.29-0.06c-0.07-0.03-0.12-0.05-0.15-0.09c-0.03-0.04-0.04-0.08-0.04-0.13v-8.51c0-0.21,0.05-0.37,0.16-0.46   c0.11-0.1,0.24-0.14,0.4-0.14h2.43c0.25,0,0.45,0.01,0.61,0.01c0.16,0.01,0.3,0.02,0.44,0.04c0.37,0.05,0.72,0.15,1.02,0.28   c0.3,0.13,0.56,0.3,0.77,0.51c0.21,0.21,0.37,0.46,0.48,0.75c0.11,0.29,0.17,0.62,0.17,0.99c0,0.31-0.04,0.6-0.12,0.86   c-0.08,0.26-0.2,0.49-0.35,0.69c-0.15,0.2-0.35,0.38-0.57,0.53c-0.23,0.15-0.48,0.27-0.77,0.36c0.14,0.07,0.27,0.15,0.39,0.25   c0.12,0.1,0.24,0.21,0.35,0.35c0.11,0.14,0.21,0.29,0.31,0.47c0.1,0.17,0.19,0.37,0.28,0.6l0.79,1.85c0.07,0.18,0.12,0.32,0.15,0.4   C351.2,47.76,351.21,47.83,351.21,47.88z M348.76,41.52c0-0.31-0.07-0.57-0.21-0.78c-0.14-0.21-0.37-0.36-0.69-0.45   c-0.1-0.03-0.21-0.04-0.33-0.06c-0.12-0.01-0.29-0.02-0.51-0.02h-0.85v2.66h0.97c0.27,0,0.51-0.03,0.71-0.1   c0.2-0.07,0.37-0.16,0.51-0.27c0.14-0.12,0.24-0.26,0.3-0.42C348.72,41.91,348.76,41.73,348.76,41.52z"/>
	<path class="st0" d="M264.29,65.08c0,0.33-0.05,0.63-0.14,0.91c-0.09,0.27-0.22,0.51-0.38,0.72c-0.16,0.21-0.35,0.39-0.58,0.53   c-0.22,0.15-0.47,0.27-0.74,0.37c-0.27,0.1-0.56,0.17-0.86,0.21c-0.31,0.04-0.65,0.07-1.02,0.07h-2.49c-0.16,0-0.29-0.05-0.4-0.14   c-0.11-0.09-0.16-0.25-0.16-0.46v-8.17c0-0.21,0.05-0.37,0.16-0.46c0.11-0.09,0.24-0.14,0.4-0.14h2.35c0.57,0,1.06,0.05,1.46,0.14   c0.4,0.1,0.73,0.24,1,0.44c0.27,0.2,0.48,0.44,0.63,0.74c0.14,0.3,0.22,0.65,0.22,1.06c0,0.23-0.03,0.44-0.09,0.64   c-0.06,0.2-0.14,0.38-0.25,0.55c-0.11,0.16-0.25,0.31-0.41,0.44c-0.16,0.13-0.35,0.23-0.55,0.3c0.27,0.05,0.51,0.13,0.73,0.25   c0.22,0.12,0.42,0.28,0.59,0.47c0.17,0.19,0.3,0.41,0.4,0.67C264.25,64.48,264.29,64.77,264.29,65.08z M261.83,61.14   c0-0.19-0.03-0.36-0.09-0.51c-0.06-0.15-0.15-0.27-0.26-0.37c-0.11-0.1-0.26-0.18-0.44-0.23c-0.18-0.05-0.41-0.08-0.71-0.08h-0.96   v2.43h1.06c0.28,0,0.5-0.03,0.66-0.1c0.16-0.07,0.3-0.15,0.41-0.27c0.11-0.11,0.19-0.25,0.24-0.4   C261.81,61.47,261.83,61.31,261.83,61.14z M262.32,65.15c0-0.22-0.04-0.41-0.11-0.58c-0.07-0.17-0.18-0.31-0.32-0.43   c-0.14-0.12-0.32-0.21-0.54-0.27c-0.22-0.06-0.5-0.09-0.85-0.09h-1.13v2.67h1.38c0.27,0,0.49-0.03,0.67-0.08   c0.18-0.06,0.34-0.14,0.47-0.25c0.13-0.11,0.24-0.24,0.31-0.4C262.28,65.54,262.32,65.36,262.32,65.15z"/>
	<path class="st0" d="M272.86,67.15c0,0.14-0.01,0.26-0.02,0.35c-0.01,0.09-0.03,0.17-0.05,0.23c-0.03,0.06-0.05,0.1-0.09,0.13   c-0.04,0.03-0.08,0.04-0.12,0.04h-4.71c-0.16,0-0.29-0.05-0.4-0.14c-0.11-0.09-0.16-0.25-0.16-0.46v-8.17   c0-0.21,0.06-0.37,0.16-0.46c0.11-0.09,0.24-0.14,0.4-0.14h4.68c0.05,0,0.08,0.01,0.12,0.04c0.03,0.02,0.06,0.07,0.09,0.13   c0.02,0.06,0.04,0.14,0.06,0.23c0.01,0.09,0.02,0.21,0.02,0.36c0,0.14-0.01,0.25-0.02,0.34c-0.01,0.09-0.03,0.17-0.06,0.23   c-0.02,0.06-0.05,0.1-0.09,0.13c-0.03,0.03-0.07,0.04-0.12,0.04h-3.34v2.29h2.83c0.04,0,0.09,0.01,0.12,0.04   c0.04,0.03,0.07,0.07,0.09,0.12c0.02,0.05,0.04,0.13,0.05,0.22c0.01,0.09,0.02,0.21,0.02,0.34c0,0.14-0.01,0.26-0.02,0.35   c-0.01,0.09-0.03,0.17-0.05,0.22c-0.03,0.06-0.05,0.09-0.09,0.12c-0.03,0.02-0.08,0.04-0.12,0.04h-2.83v2.64h3.37   c0.04,0,0.08,0.01,0.12,0.04c0.04,0.03,0.06,0.07,0.09,0.13c0.02,0.06,0.04,0.13,0.05,0.23C272.85,66.89,272.86,67.01,272.86,67.15   z"/>
	<path class="st0" d="M284.19,63.1c0,0.78-0.1,1.47-0.29,2.09c-0.19,0.61-0.48,1.13-0.86,1.56c-0.38,0.43-0.85,0.75-1.42,0.98   c-0.56,0.22-1.21,0.34-1.95,0.34c-0.73,0-1.36-0.1-1.91-0.29c-0.54-0.19-1-0.48-1.36-0.87c-0.36-0.39-0.63-0.89-0.81-1.49   c-0.18-0.6-0.27-1.32-0.27-2.14c0-0.76,0.09-1.44,0.29-2.05c0.19-0.61,0.48-1.12,0.86-1.55c0.38-0.42,0.85-0.75,1.41-0.98   c0.56-0.23,1.21-0.34,1.96-0.34c0.71,0,1.34,0.09,1.88,0.28c0.54,0.19,1,0.48,1.36,0.87c0.36,0.39,0.64,0.88,0.82,1.48   C284.1,61.59,284.19,62.29,284.19,63.1z M282.19,63.2c0-0.49-0.04-0.94-0.12-1.34c-0.08-0.4-0.21-0.75-0.39-1.03   c-0.18-0.29-0.43-0.51-0.74-0.67c-0.31-0.16-0.69-0.23-1.16-0.23c-0.47,0-0.86,0.09-1.17,0.26c-0.31,0.18-0.57,0.41-0.76,0.71   c-0.19,0.29-0.33,0.64-0.41,1.03c-0.08,0.39-0.12,0.81-0.12,1.25c0,0.51,0.04,0.97,0.12,1.38c0.08,0.41,0.21,0.76,0.39,1.05   c0.18,0.29,0.43,0.51,0.74,0.66c0.31,0.15,0.7,0.23,1.17,0.23c0.47,0,0.86-0.09,1.17-0.26c0.31-0.17,0.57-0.41,0.76-0.71   s0.33-0.65,0.41-1.05C282.16,64.07,282.19,63.65,282.19,63.2z"/>
	<path class="st0" d="M295.7,63.1c0,0.78-0.1,1.47-0.29,2.09c-0.19,0.61-0.48,1.13-0.86,1.56c-0.38,0.43-0.86,0.75-1.42,0.98   c-0.56,0.22-1.21,0.34-1.95,0.34c-0.73,0-1.37-0.1-1.91-0.29c-0.54-0.19-0.99-0.48-1.36-0.87c-0.36-0.39-0.63-0.89-0.81-1.49   c-0.18-0.6-0.27-1.32-0.27-2.14c0-0.76,0.1-1.44,0.29-2.05c0.19-0.61,0.48-1.12,0.86-1.55c0.38-0.42,0.86-0.75,1.42-0.98   c0.56-0.23,1.22-0.34,1.96-0.34c0.71,0,1.34,0.09,1.88,0.28c0.54,0.19,1,0.48,1.36,0.87c0.36,0.39,0.64,0.88,0.82,1.48   C295.61,61.59,295.7,62.29,295.7,63.1z M293.7,63.2c0-0.49-0.04-0.94-0.12-1.34c-0.08-0.4-0.21-0.75-0.39-1.03   c-0.19-0.29-0.43-0.51-0.74-0.67c-0.31-0.16-0.7-0.23-1.16-0.23c-0.47,0-0.86,0.09-1.17,0.26c-0.31,0.18-0.56,0.41-0.76,0.71   c-0.19,0.29-0.33,0.64-0.41,1.03c-0.08,0.39-0.12,0.81-0.12,1.25c0,0.51,0.04,0.97,0.12,1.38c0.08,0.41,0.21,0.76,0.39,1.05   c0.18,0.29,0.43,0.51,0.74,0.66c0.31,0.15,0.7,0.23,1.17,0.23c0.47,0,0.86-0.09,1.17-0.26c0.31-0.17,0.57-0.41,0.76-0.71   c0.19-0.3,0.33-0.65,0.41-1.05C293.67,64.07,293.7,63.65,293.7,63.2z"/>
	<path class="st0" d="M305.73,67.65c0,0.05-0.01,0.1-0.03,0.13c-0.02,0.04-0.06,0.07-0.14,0.09c-0.07,0.03-0.18,0.04-0.32,0.05   c-0.14,0.01-0.33,0.01-0.57,0.01c-0.2,0-0.36,0-0.49-0.01c-0.12-0.01-0.22-0.03-0.29-0.05c-0.07-0.03-0.12-0.06-0.15-0.1   c-0.03-0.04-0.06-0.09-0.07-0.15l-0.84-2.09c-0.1-0.24-0.2-0.45-0.3-0.63c-0.1-0.18-0.2-0.33-0.32-0.46   c-0.12-0.12-0.25-0.22-0.41-0.28c-0.16-0.06-0.33-0.09-0.54-0.09h-0.59v3.57c0,0.05-0.02,0.09-0.05,0.13   c-0.03,0.04-0.08,0.07-0.16,0.1c-0.07,0.02-0.17,0.04-0.29,0.06c-0.12,0.01-0.28,0.02-0.46,0.02c-0.18,0-0.33-0.01-0.46-0.02   c-0.12-0.01-0.22-0.03-0.29-0.06c-0.07-0.02-0.12-0.05-0.15-0.1c-0.03-0.04-0.04-0.08-0.04-0.13v-8.51c0-0.21,0.05-0.37,0.16-0.46   c0.11-0.09,0.24-0.14,0.4-0.14h2.42c0.25,0,0.45,0,0.61,0.01c0.16,0.01,0.31,0.02,0.44,0.04c0.38,0.05,0.71,0.14,1.02,0.27   c0.3,0.13,0.56,0.3,0.77,0.51c0.21,0.21,0.37,0.46,0.48,0.75c0.11,0.29,0.17,0.62,0.17,0.99c0,0.31-0.04,0.6-0.12,0.86   c-0.08,0.26-0.2,0.49-0.35,0.69c-0.15,0.2-0.35,0.38-0.57,0.53c-0.23,0.15-0.49,0.27-0.78,0.36c0.14,0.07,0.27,0.15,0.39,0.25   c0.12,0.1,0.24,0.21,0.35,0.35c0.11,0.14,0.21,0.29,0.31,0.47c0.1,0.18,0.19,0.37,0.28,0.6l0.79,1.85c0.07,0.18,0.12,0.32,0.14,0.4   C305.72,67.53,305.73,67.6,305.73,67.65z M303.28,61.29c0-0.31-0.07-0.57-0.21-0.78c-0.14-0.21-0.37-0.36-0.69-0.45   c-0.1-0.02-0.2-0.04-0.33-0.06c-0.12-0.01-0.29-0.02-0.51-0.02h-0.85v2.66h0.97c0.27,0,0.51-0.03,0.71-0.1   c0.2-0.06,0.37-0.16,0.51-0.27c0.14-0.12,0.24-0.26,0.31-0.42C303.25,61.68,303.28,61.49,303.28,61.29z"/>
	<path class="st0" d="M316.4,63.07c0,0.86-0.11,1.59-0.34,2.21c-0.22,0.61-0.55,1.11-0.97,1.49c-0.42,0.39-0.93,0.67-1.53,0.85   c-0.6,0.18-1.32,0.27-2.15,0.27h-2.24c-0.16,0-0.29-0.05-0.4-0.14c-0.11-0.09-0.16-0.25-0.16-0.46v-8.17   c0-0.21,0.05-0.37,0.16-0.46c0.11-0.09,0.24-0.14,0.4-0.14h2.4c0.84,0,1.54,0.1,2.12,0.29c0.58,0.2,1.07,0.49,1.47,0.87   c0.4,0.38,0.7,0.86,0.91,1.42C316.29,61.67,316.4,62.33,316.4,63.07z M314.43,63.14c0-0.44-0.05-0.86-0.16-1.24   c-0.1-0.38-0.27-0.71-0.5-0.99c-0.23-0.28-0.52-0.5-0.88-0.66c-0.36-0.16-0.83-0.23-1.42-0.23h-0.96v6.37h0.99   c0.52,0,0.96-0.07,1.32-0.2c0.36-0.14,0.65-0.34,0.89-0.61c0.24-0.27,0.42-0.61,0.54-1.02C314.37,64.15,314.43,63.68,314.43,63.14z   "/>
	<path class="st0" d="M324.99,67.15c0,0.14,0,0.26-0.02,0.35c-0.01,0.09-0.03,0.17-0.06,0.23c-0.02,0.06-0.05,0.1-0.09,0.13   c-0.04,0.03-0.08,0.04-0.12,0.04h-4.71c-0.16,0-0.29-0.05-0.4-0.14c-0.11-0.09-0.16-0.25-0.16-0.46v-8.17   c0-0.21,0.05-0.37,0.16-0.46c0.11-0.09,0.24-0.14,0.4-0.14h4.68c0.04,0,0.08,0.01,0.12,0.04c0.03,0.02,0.06,0.07,0.09,0.13   c0.02,0.06,0.04,0.14,0.05,0.23c0.01,0.09,0.02,0.21,0.02,0.36c0,0.14-0.01,0.25-0.02,0.34c-0.01,0.09-0.03,0.17-0.05,0.23   c-0.03,0.06-0.06,0.1-0.09,0.13c-0.03,0.03-0.07,0.04-0.12,0.04h-3.35v2.29h2.83c0.04,0,0.08,0.01,0.12,0.04   c0.04,0.03,0.07,0.07,0.09,0.12c0.03,0.05,0.04,0.13,0.06,0.22c0.01,0.09,0.02,0.21,0.02,0.34c0,0.14-0.01,0.26-0.02,0.35   c-0.01,0.09-0.03,0.17-0.06,0.22c-0.02,0.06-0.05,0.09-0.09,0.12c-0.04,0.02-0.08,0.04-0.12,0.04h-2.83v2.64h3.38   c0.04,0,0.08,0.01,0.12,0.04c0.04,0.03,0.07,0.07,0.09,0.13c0.02,0.06,0.04,0.13,0.06,0.23C324.99,66.89,324.99,67.01,324.99,67.15   z"/>
	<path class="st0" d="M333.31,67.1c0,0.14-0.01,0.27-0.02,0.36c-0.01,0.1-0.03,0.18-0.06,0.25c-0.02,0.07-0.06,0.11-0.09,0.14   c-0.04,0.03-0.08,0.04-0.13,0.04h-4.29c-0.16,0-0.29-0.05-0.4-0.14c-0.11-0.09-0.16-0.25-0.16-0.46v-8.51   c0-0.05,0.02-0.09,0.05-0.13c0.03-0.04,0.08-0.07,0.15-0.09c0.07-0.02,0.17-0.04,0.29-0.06c0.12-0.02,0.28-0.02,0.46-0.02   c0.19,0,0.34,0.01,0.46,0.02c0.12,0.01,0.22,0.03,0.29,0.06c0.07,0.02,0.12,0.06,0.16,0.09c0.03,0.04,0.05,0.08,0.05,0.13v7.54   h2.95c0.05,0,0.09,0.01,0.13,0.04c0.03,0.03,0.07,0.07,0.09,0.13c0.02,0.06,0.04,0.14,0.06,0.24   C333.3,66.83,333.31,66.95,333.31,67.1z"/>
	<path class="st0" d="M337.82,67.63c0,0.05-0.02,0.09-0.05,0.13c-0.03,0.04-0.08,0.07-0.16,0.1c-0.07,0.02-0.17,0.04-0.29,0.06   c-0.12,0.01-0.27,0.02-0.46,0.02c-0.18,0-0.34-0.01-0.46-0.02c-0.12-0.01-0.22-0.03-0.29-0.06c-0.07-0.02-0.12-0.05-0.15-0.1   c-0.03-0.04-0.05-0.08-0.05-0.13v-8.85c0-0.05,0.02-0.09,0.05-0.13c0.03-0.04,0.08-0.07,0.16-0.09c0.08-0.02,0.17-0.04,0.29-0.06   c0.12-0.02,0.27-0.02,0.46-0.02c0.19,0,0.34,0.01,0.46,0.02c0.12,0.01,0.22,0.03,0.29,0.06c0.07,0.02,0.12,0.06,0.16,0.09   c0.03,0.04,0.05,0.08,0.05,0.13V67.63z"/>
	<path class="st0" d="M349.51,67.23c0,0.11-0.02,0.21-0.06,0.3c-0.04,0.09-0.09,0.16-0.16,0.22c-0.06,0.06-0.14,0.1-0.23,0.13   c-0.09,0.03-0.18,0.04-0.27,0.04h-0.81c-0.17,0-0.31-0.02-0.44-0.05c-0.12-0.03-0.24-0.1-0.34-0.18c-0.1-0.09-0.2-0.21-0.3-0.36   c-0.1-0.15-0.21-0.35-0.33-0.59l-2.33-4.38c-0.14-0.26-0.27-0.54-0.41-0.84c-0.14-0.3-0.27-0.6-0.38-0.88h-0.01   c0.02,0.35,0.03,0.69,0.04,1.04c0.01,0.35,0.02,0.7,0.02,1.07v4.9c0,0.05-0.01,0.09-0.04,0.13c-0.03,0.04-0.07,0.07-0.14,0.1   c-0.07,0.03-0.15,0.05-0.26,0.06c-0.11,0.01-0.25,0.02-0.43,0.02c-0.17,0-0.31-0.01-0.42-0.02c-0.11-0.01-0.2-0.03-0.26-0.06   c-0.06-0.02-0.11-0.06-0.13-0.1c-0.02-0.04-0.03-0.08-0.03-0.13v-8.42c0-0.23,0.07-0.4,0.2-0.51c0.13-0.11,0.3-0.17,0.49-0.17h1.02   c0.18,0,0.34,0.02,0.46,0.05c0.13,0.03,0.24,0.08,0.34,0.16c0.1,0.07,0.19,0.17,0.28,0.3c0.09,0.13,0.18,0.29,0.27,0.47l1.82,3.42   c0.11,0.21,0.21,0.41,0.31,0.61c0.1,0.2,0.2,0.4,0.3,0.6c0.1,0.2,0.19,0.4,0.28,0.59c0.09,0.19,0.18,0.39,0.27,0.58h0.01   c-0.01-0.34-0.03-0.69-0.03-1.06c-0.01-0.37-0.01-0.72-0.01-1.05v-4.4c0-0.05,0.02-0.09,0.04-0.13c0.03-0.04,0.08-0.07,0.15-0.1   c0.07-0.03,0.16-0.05,0.27-0.06c0.11-0.01,0.25-0.02,0.43-0.02c0.17,0,0.3,0.01,0.41,0.02c0.11,0.01,0.2,0.03,0.26,0.06   c0.06,0.03,0.1,0.06,0.13,0.1c0.02,0.04,0.03,0.08,0.03,0.13V67.23z"/>
	<path class="st0" d="M360.55,59.98c0,0.14-0.01,0.26-0.02,0.36c-0.01,0.1-0.03,0.18-0.05,0.24c-0.02,0.06-0.05,0.1-0.08,0.13   c-0.03,0.02-0.07,0.04-0.11,0.04c-0.06,0-0.16-0.04-0.3-0.13c-0.14-0.09-0.32-0.18-0.56-0.28c-0.23-0.1-0.51-0.2-0.83-0.28   c-0.32-0.09-0.7-0.13-1.12-0.13c-0.45,0-0.86,0.08-1.23,0.23c-0.37,0.16-0.68,0.38-0.94,0.67c-0.26,0.29-0.46,0.63-0.6,1.03   c-0.14,0.4-0.21,0.85-0.21,1.33c0,0.54,0.07,1.01,0.21,1.42c0.14,0.41,0.34,0.75,0.6,1.02c0.26,0.27,0.56,0.48,0.92,0.62   c0.36,0.14,0.76,0.21,1.19,0.21c0.21,0,0.42-0.02,0.63-0.07c0.21-0.05,0.4-0.12,0.58-0.22v-2.17h-1.78c-0.09,0-0.15-0.05-0.2-0.16   c-0.05-0.11-0.07-0.29-0.07-0.55c0-0.14,0.01-0.25,0.02-0.34c0.01-0.09,0.03-0.17,0.05-0.22c0.02-0.06,0.05-0.1,0.09-0.12   c0.03-0.03,0.07-0.04,0.11-0.04h3.16c0.08,0,0.15,0.01,0.21,0.04c0.06,0.03,0.11,0.07,0.16,0.12c0.05,0.05,0.08,0.12,0.11,0.19   c0.02,0.08,0.04,0.16,0.04,0.26v3.73c0,0.14-0.02,0.27-0.08,0.38c-0.05,0.11-0.16,0.19-0.31,0.26c-0.16,0.06-0.35,0.13-0.58,0.19   c-0.23,0.07-0.47,0.13-0.72,0.17c-0.25,0.05-0.5,0.09-0.75,0.11c-0.25,0.02-0.51,0.04-0.77,0.04c-0.75,0-1.42-0.11-2.01-0.32   c-0.59-0.22-1.09-0.53-1.5-0.94c-0.41-0.41-0.73-0.9-0.94-1.49c-0.22-0.58-0.33-1.25-0.33-1.99c0-0.77,0.12-1.46,0.35-2.07   c0.23-0.61,0.56-1.13,0.98-1.56c0.43-0.43,0.94-0.75,1.54-0.98c0.6-0.23,1.27-0.34,2.01-0.34c0.41,0,0.77,0.03,1.11,0.08   c0.33,0.06,0.62,0.12,0.87,0.2c0.25,0.08,0.46,0.17,0.62,0.26c0.17,0.09,0.28,0.17,0.34,0.24c0.06,0.07,0.11,0.16,0.14,0.29   C360.54,59.56,360.55,59.74,360.55,59.98z"/>
	<path class="st0" d="M373.47,67.56c-0.03,0.08-0.06,0.15-0.09,0.2c-0.04,0.05-0.1,0.09-0.19,0.12c-0.09,0.03-0.2,0.04-0.35,0.05   c-0.15,0.01-0.34,0.01-0.59,0.01c-0.19,0-0.36,0-0.5,0c-0.14-0.01-0.25-0.01-0.35-0.02c-0.09-0.01-0.17-0.02-0.23-0.04   c-0.06-0.02-0.11-0.04-0.15-0.07c-0.04-0.03-0.07-0.06-0.09-0.1c-0.02-0.04-0.04-0.09-0.06-0.15l-2.79-8.3   c-0.06-0.17-0.09-0.31-0.1-0.41c-0.01-0.1,0.01-0.18,0.07-0.23c0.06-0.05,0.16-0.08,0.31-0.09c0.14-0.01,0.35-0.02,0.61-0.02   c0.22,0,0.4,0,0.52,0.01c0.13,0.01,0.22,0.03,0.29,0.05c0.07,0.02,0.11,0.06,0.14,0.11c0.02,0.05,0.05,0.11,0.08,0.18l2.28,7.22   h0.01l2.24-7.19c0.02-0.08,0.04-0.15,0.07-0.2c0.03-0.05,0.08-0.09,0.15-0.12c0.07-0.03,0.17-0.05,0.3-0.06   c0.13-0.01,0.31-0.01,0.54-0.01c0.22,0,0.39,0.01,0.52,0.02c0.12,0.01,0.21,0.05,0.25,0.1c0.05,0.06,0.06,0.13,0.04,0.24   c-0.02,0.1-0.05,0.24-0.11,0.4L373.47,67.56z"/>
	<path class="st0" d="M386.38,67.18c0.06,0.17,0.09,0.31,0.11,0.41c0.01,0.1-0.01,0.18-0.06,0.23c-0.05,0.05-0.15,0.08-0.28,0.09   c-0.13,0.01-0.32,0.02-0.56,0.02c-0.25,0-0.44,0-0.57-0.01c-0.14-0.01-0.24-0.02-0.32-0.04c-0.07-0.02-0.12-0.05-0.15-0.09   c-0.03-0.04-0.05-0.09-0.07-0.15l-0.63-1.88h-3.52l-0.59,1.83c-0.02,0.07-0.04,0.12-0.08,0.17c-0.03,0.05-0.08,0.08-0.15,0.11   c-0.07,0.03-0.17,0.04-0.3,0.05c-0.13,0.01-0.3,0.01-0.5,0.01c-0.22,0-0.4-0.01-0.52-0.02c-0.13-0.01-0.21-0.05-0.26-0.1   s-0.07-0.13-0.05-0.23c0.02-0.1,0.05-0.24,0.11-0.41l2.89-8.31c0.03-0.08,0.06-0.15,0.1-0.2c0.04-0.05,0.1-0.09,0.18-0.12   c0.08-0.03,0.2-0.04,0.35-0.05c0.15-0.01,0.35-0.01,0.59-0.01c0.28,0,0.51,0,0.68,0.01c0.17,0.01,0.3,0.02,0.39,0.05   c0.09,0.03,0.16,0.07,0.2,0.12c0.04,0.05,0.08,0.13,0.11,0.22L386.38,67.18z M382.08,60.31L382.08,60.31l-1.33,3.98h2.66   L382.08,60.31z"/>
	<path class="st0" d="M396.9,67.23c0,0.11-0.02,0.21-0.06,0.3c-0.04,0.09-0.09,0.16-0.16,0.22c-0.06,0.06-0.14,0.1-0.23,0.13   c-0.09,0.03-0.18,0.04-0.27,0.04h-0.81c-0.17,0-0.32-0.02-0.44-0.05c-0.12-0.03-0.24-0.1-0.34-0.18c-0.1-0.09-0.2-0.21-0.3-0.36   c-0.1-0.15-0.21-0.35-0.33-0.59l-2.33-4.38c-0.14-0.26-0.27-0.54-0.41-0.84c-0.14-0.3-0.26-0.6-0.38-0.88h-0.02   c0.02,0.35,0.03,0.69,0.04,1.04c0.01,0.35,0.02,0.7,0.02,1.07v4.9c0,0.05-0.01,0.09-0.04,0.13c-0.03,0.04-0.07,0.07-0.14,0.1   c-0.07,0.03-0.15,0.05-0.27,0.06c-0.11,0.01-0.25,0.02-0.43,0.02c-0.17,0-0.31-0.01-0.42-0.02c-0.11-0.01-0.2-0.03-0.26-0.06   c-0.06-0.02-0.11-0.06-0.13-0.1c-0.02-0.04-0.04-0.08-0.04-0.13v-8.42c0-0.23,0.07-0.4,0.2-0.51c0.13-0.11,0.3-0.17,0.49-0.17h1.02   c0.18,0,0.34,0.02,0.46,0.05c0.12,0.03,0.24,0.08,0.34,0.16c0.1,0.07,0.19,0.17,0.28,0.3c0.09,0.13,0.18,0.29,0.27,0.47l1.82,3.42   c0.11,0.21,0.21,0.41,0.31,0.61c0.1,0.2,0.21,0.4,0.3,0.6c0.1,0.2,0.19,0.4,0.28,0.59c0.09,0.19,0.18,0.39,0.27,0.58h0.01   c-0.01-0.34-0.03-0.69-0.03-1.06c-0.01-0.37-0.01-0.72-0.01-1.05v-4.4c0-0.05,0.01-0.09,0.04-0.13c0.03-0.04,0.08-0.07,0.14-0.1   c0.07-0.03,0.16-0.05,0.27-0.06c0.11-0.01,0.25-0.02,0.43-0.02c0.16,0,0.3,0.01,0.41,0.02c0.11,0.01,0.2,0.03,0.26,0.06   c0.06,0.03,0.1,0.06,0.13,0.1c0.02,0.04,0.04,0.08,0.04,0.13V67.23z"/>
	<path class="st0" d="M265.03,79.75c0,0.14-0.01,0.26-0.02,0.36c-0.01,0.1-0.03,0.18-0.05,0.24c-0.02,0.06-0.05,0.1-0.08,0.13   c-0.03,0.02-0.07,0.04-0.11,0.04c-0.06,0-0.16-0.04-0.3-0.13c-0.14-0.09-0.33-0.18-0.56-0.28c-0.23-0.1-0.51-0.2-0.83-0.28   c-0.32-0.09-0.69-0.13-1.12-0.13c-0.45,0-0.86,0.08-1.23,0.23c-0.37,0.16-0.68,0.38-0.94,0.67c-0.26,0.29-0.46,0.63-0.6,1.03   c-0.14,0.4-0.21,0.85-0.21,1.33c0,0.54,0.07,1.01,0.21,1.42c0.14,0.41,0.34,0.75,0.6,1.03c0.26,0.27,0.56,0.48,0.92,0.62   c0.36,0.14,0.76,0.21,1.19,0.21c0.21,0,0.42-0.02,0.63-0.07c0.21-0.05,0.4-0.12,0.58-0.22v-2.17h-1.78c-0.09,0-0.15-0.06-0.2-0.16   c-0.05-0.11-0.07-0.29-0.07-0.55c0-0.13,0.01-0.25,0.02-0.34c0.01-0.09,0.03-0.17,0.05-0.22c0.02-0.06,0.06-0.1,0.09-0.12   c0.04-0.03,0.07-0.04,0.12-0.04h3.16c0.08,0,0.15,0.01,0.21,0.04c0.06,0.03,0.11,0.07,0.16,0.12c0.04,0.05,0.08,0.12,0.1,0.19   c0.02,0.08,0.04,0.16,0.04,0.26v3.73c0,0.14-0.03,0.27-0.08,0.38c-0.05,0.11-0.15,0.2-0.31,0.26c-0.16,0.06-0.35,0.13-0.58,0.19   c-0.23,0.07-0.47,0.13-0.72,0.17c-0.25,0.05-0.5,0.09-0.75,0.11c-0.25,0.02-0.51,0.04-0.76,0.04c-0.75,0-1.42-0.11-2.01-0.32   c-0.59-0.21-1.09-0.53-1.5-0.94c-0.41-0.41-0.72-0.9-0.94-1.49c-0.22-0.59-0.32-1.25-0.32-2c0-0.77,0.12-1.46,0.35-2.07   c0.23-0.61,0.56-1.13,0.98-1.56c0.43-0.43,0.94-0.75,1.54-0.98c0.6-0.23,1.27-0.34,2.01-0.34c0.41,0,0.77,0.03,1.11,0.08   c0.33,0.06,0.62,0.12,0.87,0.2c0.25,0.08,0.45,0.17,0.62,0.26c0.16,0.09,0.28,0.17,0.35,0.24c0.06,0.07,0.11,0.16,0.14,0.29   C265.01,79.33,265.03,79.51,265.03,79.75z"/>
	<path class="st0" d="M273.99,86.92c0,0.14-0.01,0.26-0.02,0.35c-0.01,0.09-0.03,0.17-0.05,0.23c-0.03,0.06-0.05,0.1-0.09,0.13   c-0.04,0.02-0.08,0.04-0.12,0.04h-4.71c-0.16,0-0.29-0.05-0.4-0.14c-0.11-0.09-0.16-0.25-0.16-0.46V78.9   c0-0.21,0.05-0.36,0.16-0.46c0.11-0.09,0.24-0.14,0.4-0.14h4.68c0.04,0,0.08,0.01,0.12,0.03c0.03,0.02,0.06,0.07,0.09,0.13   c0.02,0.06,0.04,0.14,0.05,0.23c0.01,0.09,0.02,0.21,0.02,0.36c0,0.13-0.01,0.25-0.02,0.34c-0.01,0.09-0.03,0.17-0.05,0.23   c-0.02,0.06-0.05,0.1-0.09,0.13c-0.03,0.03-0.07,0.04-0.12,0.04h-3.35v2.29h2.83c0.04,0,0.08,0.01,0.12,0.04   c0.04,0.03,0.07,0.07,0.09,0.12c0.02,0.06,0.04,0.13,0.05,0.22c0.01,0.1,0.02,0.21,0.02,0.34c0,0.14,0,0.25-0.02,0.35   c-0.01,0.09-0.03,0.16-0.05,0.22c-0.02,0.05-0.05,0.09-0.09,0.12c-0.04,0.02-0.08,0.03-0.12,0.03h-2.83v2.64h3.38   c0.04,0,0.08,0.01,0.12,0.04c0.04,0.03,0.07,0.07,0.09,0.13c0.02,0.06,0.04,0.13,0.05,0.23C273.99,86.66,273.99,86.78,273.99,86.92   z"/>
	<path class="st0" d="M284.88,87c0,0.11-0.02,0.21-0.06,0.3c-0.04,0.09-0.09,0.16-0.16,0.22c-0.06,0.06-0.14,0.1-0.23,0.13   c-0.09,0.03-0.18,0.04-0.27,0.04h-0.81c-0.17,0-0.32-0.02-0.44-0.05c-0.12-0.03-0.24-0.09-0.34-0.18c-0.1-0.09-0.21-0.21-0.3-0.36   c-0.1-0.15-0.21-0.35-0.33-0.59l-2.33-4.38c-0.14-0.26-0.27-0.54-0.41-0.85c-0.14-0.3-0.26-0.59-0.38-0.88h-0.01   c0.02,0.35,0.03,0.69,0.04,1.04c0.01,0.34,0.02,0.7,0.02,1.07v4.9c0,0.05-0.01,0.09-0.04,0.13c-0.03,0.04-0.07,0.07-0.14,0.1   c-0.06,0.02-0.15,0.05-0.26,0.06c-0.11,0.02-0.25,0.02-0.43,0.02c-0.17,0-0.31-0.01-0.42-0.02c-0.11-0.01-0.2-0.04-0.26-0.06   c-0.06-0.03-0.11-0.06-0.13-0.1c-0.02-0.04-0.04-0.08-0.04-0.13v-8.42c0-0.23,0.06-0.4,0.2-0.51c0.13-0.11,0.29-0.17,0.49-0.17   h1.02c0.18,0,0.34,0.02,0.46,0.05c0.13,0.03,0.24,0.08,0.34,0.16c0.1,0.07,0.19,0.17,0.28,0.3c0.09,0.13,0.18,0.29,0.27,0.47   l1.82,3.42c0.11,0.21,0.21,0.41,0.32,0.61c0.1,0.2,0.2,0.4,0.3,0.6c0.1,0.2,0.19,0.4,0.28,0.59c0.09,0.19,0.18,0.39,0.27,0.58h0.01   c-0.02-0.34-0.03-0.69-0.03-1.06c-0.01-0.37-0.01-0.72-0.01-1.05v-4.39c0-0.05,0.01-0.09,0.04-0.13c0.03-0.04,0.08-0.07,0.14-0.1   c0.07-0.03,0.16-0.05,0.27-0.06c0.11-0.01,0.25-0.02,0.43-0.02c0.17,0,0.3,0.01,0.41,0.02c0.11,0.01,0.2,0.03,0.26,0.06   c0.06,0.03,0.1,0.06,0.13,0.1c0.02,0.04,0.04,0.08,0.04,0.13V87z"/>
	<path class="st0" d="M294.4,86.92c0,0.14-0.01,0.26-0.02,0.35c-0.01,0.09-0.03,0.17-0.05,0.23c-0.03,0.06-0.06,0.1-0.09,0.13   c-0.04,0.02-0.08,0.04-0.12,0.04h-4.71c-0.16,0-0.29-0.05-0.4-0.14c-0.11-0.09-0.16-0.25-0.16-0.46V78.9   c0-0.21,0.05-0.36,0.16-0.46c0.11-0.09,0.24-0.14,0.4-0.14h4.68c0.04,0,0.08,0.01,0.12,0.03c0.03,0.02,0.06,0.07,0.09,0.13   c0.02,0.06,0.04,0.14,0.05,0.23c0.01,0.09,0.02,0.21,0.02,0.36c0,0.13-0.01,0.25-0.02,0.34c-0.01,0.09-0.03,0.17-0.05,0.23   c-0.02,0.06-0.05,0.1-0.09,0.13c-0.03,0.03-0.07,0.04-0.12,0.04h-3.34v2.29h2.83c0.04,0,0.08,0.01,0.12,0.04   c0.04,0.03,0.07,0.07,0.09,0.12c0.02,0.06,0.04,0.13,0.05,0.22c0.01,0.1,0.02,0.21,0.02,0.34c0,0.14,0,0.25-0.02,0.35   c-0.01,0.09-0.03,0.16-0.05,0.22c-0.02,0.05-0.05,0.09-0.09,0.12c-0.03,0.02-0.08,0.03-0.12,0.03h-2.83v2.64h3.37   c0.04,0,0.08,0.01,0.12,0.04c0.04,0.03,0.07,0.07,0.09,0.13c0.02,0.06,0.04,0.13,0.05,0.23C294.4,86.66,294.4,86.78,294.4,86.92z"/>
	<path class="st0" d="M303.12,86.92c0,0.14-0.01,0.26-0.02,0.35s-0.03,0.17-0.06,0.23c-0.02,0.06-0.05,0.1-0.09,0.13   c-0.04,0.02-0.08,0.04-0.12,0.04h-4.7c-0.16,0-0.29-0.05-0.4-0.14c-0.11-0.09-0.16-0.25-0.16-0.46V78.9c0-0.21,0.05-0.36,0.16-0.46   c0.11-0.09,0.24-0.14,0.4-0.14h4.68c0.04,0,0.08,0.01,0.12,0.03c0.03,0.02,0.06,0.07,0.09,0.13c0.02,0.06,0.04,0.14,0.05,0.23   c0.01,0.09,0.02,0.21,0.02,0.36c0,0.13-0.01,0.25-0.02,0.34c-0.01,0.09-0.03,0.17-0.05,0.23c-0.02,0.06-0.05,0.1-0.09,0.13   c-0.03,0.03-0.07,0.04-0.12,0.04h-3.34v2.29h2.83c0.04,0,0.09,0.01,0.12,0.04c0.04,0.03,0.07,0.07,0.09,0.12   c0.02,0.06,0.04,0.13,0.05,0.22c0.01,0.1,0.02,0.21,0.02,0.34c0,0.14,0,0.25-0.02,0.35c-0.01,0.09-0.03,0.16-0.05,0.22   c-0.03,0.05-0.06,0.09-0.09,0.12c-0.03,0.02-0.08,0.03-0.12,0.03h-2.83v2.64h3.37c0.05,0,0.09,0.01,0.12,0.04   c0.04,0.03,0.06,0.07,0.09,0.13c0.03,0.06,0.04,0.13,0.06,0.23C303.11,86.66,303.12,86.78,303.12,86.92z"/>
	<path class="st0" d="M311.69,84.85c0,0.49-0.09,0.92-0.27,1.29c-0.18,0.37-0.43,0.68-0.75,0.93c-0.31,0.25-0.68,0.44-1.1,0.56   c-0.42,0.13-0.87,0.19-1.35,0.19c-0.32,0-0.62-0.03-0.9-0.08c-0.28-0.05-0.52-0.12-0.73-0.19c-0.21-0.08-0.39-0.15-0.53-0.23   c-0.14-0.08-0.25-0.15-0.31-0.22c-0.06-0.06-0.11-0.15-0.14-0.27c-0.03-0.12-0.04-0.29-0.04-0.51c0-0.15,0.01-0.28,0.01-0.38   c0.01-0.1,0.03-0.18,0.05-0.24c0.02-0.06,0.05-0.11,0.09-0.13c0.04-0.03,0.08-0.04,0.13-0.04c0.07,0,0.16,0.04,0.29,0.12   c0.12,0.08,0.28,0.17,0.48,0.26c0.19,0.1,0.42,0.19,0.69,0.26c0.27,0.08,0.58,0.12,0.93,0.12c0.23,0,0.44-0.03,0.62-0.08   c0.18-0.06,0.34-0.13,0.47-0.24c0.13-0.1,0.22-0.23,0.29-0.38c0.07-0.15,0.1-0.32,0.1-0.5c0-0.21-0.06-0.39-0.18-0.55   c-0.12-0.15-0.27-0.29-0.45-0.41c-0.18-0.12-0.4-0.23-0.63-0.33c-0.24-0.1-0.48-0.21-0.73-0.33c-0.25-0.12-0.5-0.25-0.73-0.4   c-0.24-0.14-0.45-0.32-0.63-0.53c-0.18-0.21-0.34-0.45-0.45-0.73c-0.12-0.28-0.17-0.62-0.17-1.01c0-0.45,0.08-0.84,0.25-1.18   c0.16-0.34,0.39-0.62,0.67-0.85c0.28-0.22,0.62-0.39,1-0.5c0.38-0.11,0.79-0.17,1.22-0.17c0.22,0,0.44,0.02,0.67,0.05   c0.22,0.03,0.43,0.08,0.62,0.14c0.19,0.06,0.36,0.12,0.51,0.2c0.15,0.07,0.25,0.13,0.3,0.18c0.05,0.05,0.08,0.09,0.1,0.12   c0.02,0.03,0.03,0.08,0.04,0.13c0.01,0.06,0.02,0.13,0.03,0.21c0.01,0.08,0.01,0.19,0.01,0.32c0,0.14,0,0.26-0.01,0.35   c-0.01,0.1-0.02,0.18-0.04,0.24c-0.02,0.06-0.04,0.11-0.07,0.14c-0.03,0.03-0.07,0.04-0.13,0.04c-0.05,0-0.14-0.03-0.25-0.1   c-0.12-0.07-0.26-0.14-0.43-0.22c-0.17-0.08-0.36-0.15-0.59-0.21c-0.22-0.07-0.47-0.1-0.73-0.1c-0.21,0-0.39,0.02-0.54,0.08   c-0.15,0.05-0.28,0.12-0.39,0.21c-0.1,0.09-0.18,0.2-0.23,0.32c-0.05,0.12-0.08,0.26-0.08,0.4c0,0.21,0.06,0.39,0.17,0.54   c0.11,0.15,0.26,0.29,0.45,0.41c0.19,0.12,0.41,0.23,0.65,0.33c0.24,0.1,0.49,0.21,0.74,0.33c0.25,0.11,0.5,0.25,0.74,0.39   c0.24,0.15,0.46,0.32,0.64,0.53c0.19,0.21,0.34,0.44,0.45,0.72C311.63,84.15,311.69,84.48,311.69,84.85z"/>
	<path class="st0" d="M325.99,87.4c0,0.05-0.02,0.09-0.04,0.13c-0.03,0.04-0.07,0.07-0.14,0.09c-0.07,0.02-0.16,0.04-0.28,0.06   c-0.11,0.02-0.26,0.02-0.44,0.02c-0.17,0-0.32-0.01-0.43-0.02c-0.12-0.01-0.21-0.03-0.28-0.06c-0.07-0.02-0.12-0.05-0.15-0.09   c-0.03-0.04-0.04-0.08-0.04-0.13v-7.62h-0.02l-2.71,7.62c-0.02,0.06-0.05,0.11-0.09,0.15c-0.04,0.04-0.1,0.08-0.18,0.1   c-0.08,0.02-0.17,0.04-0.29,0.05c-0.12,0.01-0.26,0.01-0.42,0.01c-0.16,0-0.31-0.01-0.42-0.02c-0.12-0.01-0.21-0.03-0.29-0.06   c-0.08-0.03-0.13-0.06-0.18-0.1c-0.04-0.04-0.07-0.09-0.09-0.14l-2.62-7.62h-0.02v7.62c0,0.05-0.01,0.09-0.04,0.13   c-0.03,0.04-0.07,0.07-0.15,0.09c-0.07,0.02-0.17,0.04-0.28,0.06c-0.11,0.02-0.26,0.02-0.44,0.02c-0.17,0-0.32-0.01-0.43-0.02   c-0.12-0.01-0.21-0.03-0.28-0.06c-0.07-0.02-0.12-0.05-0.15-0.09c-0.03-0.04-0.04-0.08-0.04-0.13v-8.35c0-0.25,0.06-0.44,0.2-0.56   c0.13-0.13,0.3-0.2,0.52-0.2h1.25c0.22,0,0.41,0.02,0.57,0.06c0.16,0.03,0.3,0.1,0.41,0.18c0.11,0.08,0.21,0.19,0.29,0.33   c0.08,0.14,0.15,0.31,0.21,0.51l2.02,5.58h0.03l2.1-5.57c0.06-0.2,0.13-0.37,0.21-0.51c0.07-0.14,0.16-0.25,0.26-0.34   c0.1-0.09,0.22-0.15,0.35-0.18c0.13-0.04,0.29-0.06,0.47-0.06h1.28c0.13,0,0.24,0.02,0.34,0.05c0.1,0.03,0.17,0.08,0.23,0.15   c0.06,0.06,0.11,0.15,0.14,0.24c0.03,0.1,0.05,0.2,0.05,0.32V87.4z"/>
	<path class="st0" d="M331.87,87.4c0,0.05-0.01,0.09-0.05,0.13c-0.03,0.04-0.08,0.07-0.15,0.09c-0.07,0.02-0.17,0.04-0.29,0.06   c-0.12,0.02-0.27,0.02-0.46,0.02c-0.18,0-0.34-0.01-0.46-0.02c-0.12-0.01-0.22-0.03-0.29-0.06c-0.07-0.02-0.12-0.05-0.16-0.09   c-0.03-0.04-0.05-0.08-0.05-0.13v-8.85c0-0.05,0.02-0.09,0.05-0.13c0.03-0.04,0.09-0.07,0.16-0.09c0.08-0.02,0.17-0.04,0.29-0.06   c0.12-0.01,0.27-0.02,0.46-0.02c0.19,0,0.34,0.01,0.46,0.02c0.12,0.01,0.22,0.03,0.29,0.06c0.07,0.02,0.12,0.06,0.15,0.09   c0.03,0.04,0.05,0.08,0.05,0.13V87.4z"/>
	<path class="st0" d="M343.62,82.84c0,0.86-0.11,1.59-0.34,2.2c-0.22,0.61-0.55,1.11-0.97,1.49c-0.42,0.39-0.93,0.67-1.53,0.85   c-0.6,0.18-1.32,0.27-2.15,0.27h-2.24c-0.16,0-0.29-0.05-0.4-0.14s-0.16-0.25-0.16-0.46V78.9c0-0.21,0.06-0.36,0.16-0.46   c0.11-0.09,0.24-0.14,0.4-0.14h2.4c0.84,0,1.54,0.1,2.13,0.29c0.58,0.2,1.07,0.48,1.47,0.87c0.4,0.38,0.7,0.86,0.91,1.42   C343.51,81.44,343.62,82.1,343.62,82.84z M341.65,82.91c0-0.44-0.05-0.86-0.16-1.24c-0.1-0.38-0.27-0.71-0.5-0.99   c-0.23-0.28-0.52-0.5-0.88-0.66c-0.36-0.16-0.83-0.23-1.42-0.23h-0.96v6.37h0.99c0.52,0,0.96-0.07,1.32-0.2   c0.36-0.13,0.65-0.34,0.89-0.61c0.24-0.27,0.42-0.61,0.54-1.02C341.59,83.92,341.65,83.45,341.65,82.91z"/>
	<path class="st0" d="M354.45,82.84c0,0.86-0.11,1.59-0.34,2.2c-0.22,0.61-0.55,1.11-0.97,1.49c-0.42,0.39-0.93,0.67-1.53,0.85   c-0.6,0.18-1.32,0.27-2.15,0.27h-2.24c-0.16,0-0.29-0.05-0.4-0.14c-0.11-0.09-0.16-0.25-0.16-0.46V78.9c0-0.21,0.06-0.36,0.16-0.46   c0.11-0.09,0.24-0.14,0.4-0.14h2.4c0.84,0,1.54,0.1,2.13,0.29c0.58,0.2,1.07,0.48,1.47,0.87c0.4,0.38,0.7,0.86,0.91,1.42   C354.34,81.44,354.45,82.1,354.45,82.84z M352.48,82.91c0-0.44-0.05-0.86-0.16-1.24c-0.1-0.38-0.27-0.71-0.5-0.99   c-0.23-0.28-0.52-0.5-0.88-0.66c-0.36-0.16-0.83-0.23-1.42-0.23h-0.96v6.37h0.99c0.52,0,0.96-0.07,1.32-0.2   c0.36-0.13,0.65-0.34,0.89-0.61c0.24-0.27,0.42-0.61,0.54-1.02C352.42,83.92,352.48,83.45,352.48,82.91z"/>
	<path class="st0" d="M363.04,86.92c0,0.14-0.01,0.26-0.02,0.35c-0.01,0.09-0.03,0.17-0.05,0.23c-0.02,0.06-0.06,0.1-0.09,0.13   c-0.04,0.02-0.08,0.04-0.12,0.04h-4.71c-0.16,0-0.29-0.05-0.4-0.14c-0.11-0.09-0.16-0.25-0.16-0.46V78.9   c0-0.21,0.05-0.36,0.16-0.46c0.11-0.09,0.24-0.14,0.4-0.14h4.68c0.04,0,0.08,0.01,0.12,0.03c0.03,0.02,0.06,0.07,0.09,0.13   c0.02,0.06,0.04,0.14,0.05,0.23c0.01,0.09,0.02,0.21,0.02,0.36c0,0.13-0.01,0.25-0.02,0.34c-0.01,0.09-0.03,0.17-0.05,0.23   c-0.02,0.06-0.05,0.1-0.09,0.13c-0.03,0.03-0.07,0.04-0.12,0.04h-3.35v2.29h2.83c0.04,0,0.08,0.01,0.12,0.04   c0.04,0.03,0.07,0.07,0.09,0.12c0.02,0.06,0.04,0.13,0.05,0.22c0.01,0.1,0.02,0.21,0.02,0.34c0,0.14,0,0.25-0.02,0.35   c-0.01,0.09-0.03,0.16-0.05,0.22c-0.02,0.05-0.06,0.09-0.09,0.12c-0.04,0.02-0.08,0.03-0.12,0.03h-2.83v2.64h3.37   c0.04,0,0.08,0.01,0.12,0.04c0.03,0.03,0.07,0.07,0.09,0.13c0.02,0.06,0.04,0.13,0.05,0.23C363.04,86.66,363.04,86.78,363.04,86.92   z"/>
	<path class="st0" d="M371.35,86.87c0,0.14,0,0.27-0.02,0.36c-0.01,0.1-0.03,0.18-0.05,0.25c-0.02,0.06-0.05,0.11-0.09,0.14   c-0.04,0.03-0.08,0.05-0.13,0.05h-4.29c-0.16,0-0.29-0.05-0.4-0.14c-0.11-0.09-0.16-0.25-0.16-0.46v-8.51   c0-0.05,0.02-0.09,0.05-0.13c0.03-0.04,0.08-0.07,0.15-0.09c0.07-0.02,0.17-0.04,0.29-0.06c0.12-0.01,0.28-0.02,0.46-0.02   c0.19,0,0.34,0.01,0.46,0.02c0.12,0.01,0.22,0.03,0.29,0.06c0.07,0.02,0.12,0.06,0.16,0.09c0.03,0.04,0.05,0.08,0.05,0.13v7.54   h2.95c0.05,0,0.09,0.01,0.13,0.04c0.03,0.03,0.06,0.07,0.09,0.13c0.02,0.06,0.04,0.14,0.05,0.24   C371.35,86.6,371.35,86.72,371.35,86.87z"/>
	<path class="st0" d="M379.51,86.92c0,0.14-0.01,0.26-0.02,0.35c-0.01,0.09-0.03,0.17-0.05,0.23c-0.03,0.06-0.06,0.1-0.09,0.13   c-0.04,0.02-0.08,0.04-0.12,0.04h-4.7c-0.16,0-0.3-0.05-0.4-0.14c-0.11-0.09-0.17-0.25-0.17-0.46V78.9c0-0.21,0.06-0.36,0.17-0.46   c0.11-0.09,0.24-0.14,0.4-0.14h4.67c0.05,0,0.08,0.01,0.12,0.03c0.04,0.02,0.06,0.07,0.09,0.13c0.03,0.06,0.04,0.14,0.06,0.23   c0.01,0.09,0.02,0.21,0.02,0.36c0,0.13-0.01,0.25-0.02,0.34c-0.01,0.09-0.03,0.17-0.06,0.23c-0.02,0.06-0.05,0.1-0.09,0.13   c-0.03,0.03-0.07,0.04-0.12,0.04h-3.34v2.29h2.83c0.04,0,0.08,0.01,0.12,0.04c0.04,0.03,0.07,0.07,0.09,0.12   c0.02,0.06,0.04,0.13,0.05,0.22c0.01,0.1,0.02,0.21,0.02,0.34c0,0.14-0.01,0.25-0.02,0.35c-0.01,0.09-0.03,0.16-0.05,0.22   c-0.02,0.05-0.05,0.09-0.09,0.12c-0.04,0.02-0.08,0.03-0.12,0.03h-2.83v2.64h3.37c0.04,0,0.08,0.01,0.12,0.04   c0.03,0.03,0.07,0.07,0.09,0.13c0.02,0.06,0.04,0.13,0.05,0.23C379.51,86.66,379.51,86.78,379.51,86.92z"/>
	<path class="st0" d="M390.4,87c0,0.11-0.02,0.21-0.06,0.3c-0.04,0.09-0.09,0.16-0.15,0.22c-0.07,0.06-0.14,0.1-0.23,0.13   c-0.09,0.03-0.18,0.04-0.27,0.04h-0.81c-0.17,0-0.31-0.02-0.44-0.05c-0.12-0.03-0.24-0.09-0.34-0.18c-0.11-0.09-0.2-0.21-0.3-0.36   c-0.1-0.15-0.21-0.35-0.33-0.59l-2.33-4.38c-0.13-0.26-0.27-0.54-0.41-0.85c-0.14-0.3-0.27-0.59-0.38-0.88h-0.02   c0.02,0.35,0.03,0.69,0.04,1.04c0.01,0.34,0.01,0.7,0.01,1.07v4.9c0,0.05-0.01,0.09-0.04,0.13c-0.03,0.04-0.07,0.07-0.14,0.1   c-0.07,0.02-0.15,0.05-0.27,0.06c-0.11,0.02-0.25,0.02-0.43,0.02c-0.17,0-0.31-0.01-0.42-0.02c-0.11-0.01-0.2-0.04-0.26-0.06   c-0.06-0.03-0.11-0.06-0.13-0.1c-0.02-0.04-0.04-0.08-0.04-0.13v-8.42c0-0.23,0.07-0.4,0.2-0.51c0.13-0.11,0.3-0.17,0.49-0.17h1.02   c0.18,0,0.34,0.02,0.46,0.05c0.13,0.03,0.24,0.08,0.34,0.16c0.1,0.07,0.19,0.17,0.28,0.3c0.09,0.13,0.18,0.29,0.27,0.47l1.82,3.42   c0.11,0.21,0.21,0.41,0.32,0.61c0.1,0.2,0.2,0.4,0.3,0.6c0.1,0.2,0.19,0.4,0.28,0.59c0.09,0.19,0.18,0.39,0.27,0.58h0.01   c-0.01-0.34-0.03-0.69-0.03-1.06c-0.01-0.37-0.01-0.72-0.01-1.05v-4.39c0-0.05,0.01-0.09,0.04-0.13c0.03-0.04,0.08-0.07,0.14-0.1   c0.07-0.03,0.16-0.05,0.27-0.06c0.11-0.01,0.25-0.02,0.43-0.02c0.16,0,0.3,0.01,0.41,0.02c0.11,0.01,0.2,0.03,0.26,0.06   c0.06,0.03,0.1,0.06,0.13,0.1c0.02,0.04,0.04,0.08,0.04,0.13V87z"/>
</g>
</svg>