<?xml version="1.0" encoding="UTF-8"?><svg id="Layer_2" xmlns="http://www.w3.org/2000/svg" xmlns:xlink="http://www.w3.org/1999/xlink" viewBox="0 0 258.08 250.16"><defs><style>.cls-1{fill:url(#linear-gradient);}.cls-2{fill:#545151;}.cls-3{fill:url(#linear-gradient-3);}.cls-4{fill:url(#linear-gradient-4);}.cls-5{fill:url(#linear-gradient-2);}.cls-6{fill:url(#linear-gradient-5);}</style><linearGradient id="linear-gradient" x1=".54" y1="77.39" x2="250" y2="77.39" gradientUnits="userSpaceOnUse"><stop offset="0" stop-color="#3b8aa2"/><stop offset="1" stop-color="#3a7b94"/></linearGradient><linearGradient id="linear-gradient-2" x1="0" y1="77.39" x2="251.1" y2="77.39" xlink:href="#linear-gradient"/><linearGradient id="linear-gradient-3" x1="8.08" y1="105.38" x2="257.53" y2="105.38" gradientUnits="userSpaceOnUse"><stop offset="0" stop-color="#76edf3"/><stop offset="1" stop-color="#5cc7cf"/></linearGradient><linearGradient id="linear-gradient-4" x1="6.98" y1="105.38" x2="258.08" y2="105.38" gradientUnits="userSpaceOnUse"><stop offset="0" stop-color="#71e5ec"/><stop offset="1" stop-color="#61ced5"/></linearGradient><linearGradient id="linear-gradient-5" x1="104.68" y1="91.38" x2="152.28" y2="91.38" gradientUnits="userSpaceOnUse"><stop offset="0" stop-color="#71e6ec"/><stop offset="1" stop-color="#71e6ec"/></linearGradient></defs><g><g><path class="cls-1" d="M229.33,51.53h20.68C213.67,9.8,174.83,.65,129.35,.5,65.55,.29,9.13,58.24,.54,83.38c29.63,53.49,71.8,68.8,114.34,70.78,5.3,.25,10.62,.11,15.89-.45,70.35-7.56,92.2-52.62,92.2-52.62h-17.87s-24.96,33.63-77.56,37.07c-4.46,.29-8.92,.32-13.39,.22-37.68-.83-69.13-12.35-95.86-54.55C30.16,62.04,79.28,16.75,130.67,16.75c20.38,0,51.98-.89,98.65,34.78Z"/><path class="cls-5" d="M119.91,154.78c-1.67,0-3.36-.04-5.04-.12C62.06,152.2,25.59,129.63,.11,83.63l-.11-.19,.07-.21c3.96-11.6,19.38-32.56,43.87-51.18C63.18,17.41,93.53,0,129,0c.12,0,.23,0,.35,0,39.82,.13,82.04,6.42,121.03,51.2l.72,.83h-21.94l-.13-.1c-45.44-34.73-76.4-34.7-96.9-34.68h-1.45c-49.42,0-98.88,43.18-111.8,66.56,23.48,36.94,52,53.12,95.29,54.07,5.01,.11,9.37,.04,13.35-.22,27.04-1.77,46.58-11.7,58.22-19.72,12.61-8.69,18.91-17.07,18.97-17.16l.15-.2h18.92l-.35,.72c-.05,.11-5.67,11.5-19.84,23.64-13.06,11.19-36.29,25.35-72.75,29.26-3.56,.38-7.22,.58-10.92,.58ZM1.09,83.34c25.29,45.54,61.47,67.89,113.82,70.33,5.38,.25,10.7,.1,15.81-.45,36.18-3.89,59.22-17.91,72.17-28.99,12-10.27,17.8-19.97,19.26-22.63h-16.79c-2.21,2.82-27.67,33.79-77.78,37.07-4,.26-8.4,.34-13.44,.22-43.77-.97-72.56-17.35-96.27-54.79l-.16-.25,.14-.26C30.65,60.09,80.68,16.25,130.67,16.25h1.45c20.62-.03,51.74-.05,97.37,34.78h19.4C210.37,7.3,168.68,1.13,129.34,1c-.11,0-.23,0-.35,0-35.19,0-65.33,17.3-84.45,31.83C20.37,51.22,5.12,71.83,1.09,83.34Z"/></g><g><path class="cls-3" d="M28.75,131.24H8.08c36.33,41.72,75.17,50.88,120.66,51.02,63.8,.21,120.21-57.74,128.8-82.88-29.63-53.49-71.8-68.8-114.34-70.78-5.3-.25-10.62-.11-15.89,.45-70.35,7.56-92.2,52.62-92.2,52.62h17.87s24.96-33.63,77.56-37.07c4.46-.29,8.92-.32,13.39-.22,37.68,.83,69.13,12.35,95.86,54.55-11.87,21.79-60.99,67.08-112.38,67.08-20.38,0-51.98,.89-98.65-34.78Z"/><path class="cls-4" d="M129.08,182.77c-.12,0-.23,0-.35,0-39.82-.13-82.04-6.42-121.03-51.2l-.72-.83H28.92l.13,.1c45.44,34.73,76.42,34.73,96.9,34.68h1.45c49.42,0,98.88-43.18,111.8-66.56-23.48-36.94-51.99-53.12-95.29-54.07-5.01-.11-9.37-.04-13.35,.22-27.04,1.77-46.58,11.7-58.22,19.72-12.61,8.69-18.91,17.07-18.97,17.16l-.15,.2h-18.92l.35-.72c.05-.11,5.67-11.5,19.84-23.64,13.06-11.19,36.29-25.35,72.75-29.26,5.17-.56,10.54-.71,15.97-.46,52.81,2.46,89.27,25.03,114.76,71.04l.11,.19-.07,.21c-3.96,11.6-19.38,32.56-43.87,51.18-19.24,14.63-49.59,32.04-85.06,32.04ZM9.18,131.74c38.53,43.73,80.22,49.9,119.56,50.02,.11,0,.23,0,.35,0,35.19,0,65.33-17.3,84.45-31.83,24.17-18.38,39.43-39,43.45-50.5-25.29-45.54-61.47-67.89-113.82-70.33-5.38-.25-10.69-.1-15.81,.45-36.18,3.89-59.22,17.91-72.17,28.99-12,10.27-17.8,19.97-19.26,22.63h16.79c2.21-2.82,27.67-33.79,77.77-37.07,4-.26,8.4-.33,13.44-.22,43.77,.97,72.56,17.35,96.27,54.79l.16,.25-.14,.26c-12.8,23.5-62.83,67.34-112.82,67.34h-1.45c-20.6,.04-51.73,.05-97.37-34.78H9.18Z"/></g></g><path class="cls-6" d="M136.56,115.18h-16.15v-15.73h-15.73v-16.14h15.73v-15.73h16.15v15.73h15.72v16.14h-15.72v15.73Zm-13.15-3h10.15v-15.73h15.72v-10.14h-15.72v-15.73h-10.15v15.73h-15.73v10.14h15.73v15.73Z"/><path class="cls-2" d="M156.9,62.96c-7.27-7.28-17.32-11.78-28.42-11.78s-21.14,4.5-28.42,11.78c-7.27,7.27-11.78,17.32-11.78,28.42,0,22.2,18,40.2,40.2,40.2,11.1,0,21.15-4.5,28.42-11.78,7.28-7.27,11.78-17.32,11.78-28.42s-4.5-21.15-11.78-28.42Zm-6.45,50.4c-5.62,5.61-13.4,9.1-21.97,9.1-17.15,0-31.06-13.91-31.06-31.07,0-8.58,3.47-16.34,9.1-21.96,5.62-5.62,13.39-9.1,21.96-9.1s16.35,3.47,21.97,9.1c5.61,5.62,9.1,13.39,9.1,21.96s-3.48,16.35-9.1,21.97Z"/><g><path class="cls-2" d="M48.06,249.36l-5.74-34.27-15.91,30.18h-1.02l-16.08-30.29-5.74,34.39H.09l7.28-42.91h.97l17.56,32.68,17.45-32.68h.91l7.28,42.91h-3.47Z"/><path class="cls-2" d="M88.65,246.12v3.24h-27v-42.63h26.26v3.24h-22.91v14.89h21.66v3.24h-21.66v18.02h23.64Z"/><path class="cls-2" d="M134.86,227.99c0,12.73-9.32,22.17-24.1,22.17-4.77,0-9.55-.85-11.82-1.71v-41.72h11.88c14.72,0,24.04,9.15,24.04,21.26Zm-3.58,.06c0-9.95-7.39-18.08-20.46-18.08h-8.47v35.92c2.27,.57,5.63,1.02,8.7,1.02,12.96,0,20.23-8.47,20.23-18.87Z"/><path class="cls-2" d="M144.98,206.73h3.41v42.63h-3.41v-42.63Z"/><path class="cls-2" d="M159.48,247.54v-3.35c1.93,1.42,5.63,2.78,9.55,2.78,7.33,0,11.2-3.87,11.2-8.64,0-3.75-2.33-6.65-6.71-8.92l-5.29-2.73c-4.6-2.44-7.73-5.29-7.73-9.95,0-6.14,5.46-10.63,14.04-10.63,3.13,0,6.25,.8,7.62,1.59v3.35c-1.54-.91-4.66-1.82-7.56-1.82-6.48,0-10.52,3.18-10.52,7.5,0,3.35,2.33,5.29,5.91,7.16l5.34,2.73c5.4,2.78,8.36,6.54,8.36,11.6,0,6.54-4.94,11.94-14.49,11.94-3.98,0-7.73-1.19-9.72-2.61Z"/><path class="cls-2" d="M220.24,246.12v3.24h-27v-42.63h26.26v3.24h-22.91v14.89h21.66v3.24h-21.66v18.02h23.64Z"/><path class="cls-2" d="M257.53,246.12v3.24h-27v-42.63h26.26v3.24h-22.91v14.89h21.66v3.24h-21.66v18.02h23.64Z"/></g></svg>